<svg width="181.69062499999998px" height="68px" xmlns="http://www.w3.org/2000/svg" viewBox="159.15468750000002 41 181.69062499999998 68" style="background: rgba(0, 0, 0, 0);" preserveAspectRatio="xMidYMid"><defs><linearGradient id="editing-outline-gradient" x1="-0.41354545764260087" x2="1.4135454576426008" y1="0.09326335692419985" y2="0.9067366430758002"><stop offset="0" stop-color="#ee4208"></stop><stop offset="1" stop-color="#4139ff"></stop></linearGradient><filter id="editing-outline" x="-100%" y="-100%" width="300%" height="300%"><feMorphology in="SourceGraphic" operator="dilate" radius="1" result="outline"></feMorphology><feComposite operator="out" in="outline" in2="SourceAlpha"></feComposite></filter></defs><g filter="url(#editing-outline)"><g transform="translate(190.85501235723495, 88.81500244140625)"><path d="M12.21-13.86L12.21-13.86L12.21-13.86Q12.66-14.76 12.66-15.60L12.66-15.60L12.66-15.60Q12.66-16.44 12.57-16.91L12.57-16.91L12.57-16.91Q12.48-17.37 12.27-17.73L12.27-17.73L12.27-17.73Q11.82-18.51 10.92-18.51L10.92-18.51L10.92-18.51Q9.81-18.51 8.91-17.70L8.91-17.70L8.91-17.70Q7.95-16.86 7.95-15.54L7.95-15.54L7.95-15.54Q7.95-14.70 8.54-14.05L8.54-14.05L8.54-14.05Q9.12-13.41 10.02-12.81L10.02-12.81L10.02-12.81Q10.92-12.21 11.94-11.61L11.94-11.61L11.94-11.61Q12.96-11.01 13.86-10.29L13.86-10.29L13.86-10.29Q15.93-8.64 15.93-6.42L15.93-6.42L15.93-6.42Q15.93-4.92 15.13-3.65L15.13-3.65L15.13-3.65Q14.34-2.37 13.02-1.44L13.02-1.44L13.02-1.44Q10.14 0.60 6.33 0.60L6.33 0.60L6.33 0.60Q3.24 0.60 1.65-0.40L1.65-0.40L1.65-0.40Q0.06-1.41 0.06-2.94L0.06-2.94L0.06-2.94Q0.06-5.67 2.19-6.36L2.19-6.36L2.19-6.36Q2.79-6.57 3.71-6.57L3.71-6.57L3.71-6.57Q4.62-6.57 5.67-6.18L5.67-6.18L5.67-6.18Q5.19-4.95 5.19-3.84L5.19-3.84L5.19-3.84Q5.19-1.44 6.90-1.44L6.90-1.44L6.90-1.44Q8.01-1.44 8.92-2.25L8.92-2.25L8.92-2.25Q9.84-3.06 9.84-3.97L9.84-3.97L9.84-3.97Q9.84-4.89 9.25-5.55L9.25-5.55L9.25-5.55Q8.67-6.21 7.80-6.73L7.80-6.73L7.80-6.73Q6.93-7.26 5.92-7.77L5.92-7.77L5.92-7.77Q4.92-8.28 4.05-9L4.05-9L4.05-9Q2.01-10.65 2.01-13.29L2.01-13.29L2.01-13.29Q2.01-15 2.85-16.34L2.85-16.34L2.85-16.34Q3.69-17.67 5.04-18.57L5.04-18.57L5.04-18.57Q7.74-20.40 11.05-20.40L11.05-20.40L11.05-20.40Q14.37-20.40 15.97-19.41L15.97-19.41L15.97-19.41Q17.58-18.42 17.58-16.74L17.58-16.74L17.58-16.74Q17.58-15.27 16.44-14.34L16.44-14.34L16.44-14.34Q15.45-13.56 14.25-13.56L14.25-13.56L14.25-13.56Q13.05-13.56 12.21-13.86ZM25.95-14.22L25.95-14.22L25.95-14.22Q27.57-15.90 30.99-15.90L30.99-15.90L30.99-15.90Q32.88-15.90 33.91-14.89L33.91-14.89L33.91-14.89Q34.95-13.89 34.95-12.04L34.95-12.04L34.95-12.04Q34.95-10.20 33.91-8.89L33.91-8.89L33.91-8.89Q32.88-7.59 30.96-7.05L30.96-7.05L30.96-7.05Q31.11-6.45 31.32-5.82L31.32-5.82L31.74-4.62L31.74-4.62Q32.31-3.09 32.76-2.55L32.76-2.55L32.76-2.55Q33.21-2.01 33.81-1.83L33.81-1.83L33.81-1.83Q33.48-0.60 32.28 0.06L32.28 0.06L32.28 0.06Q31.32 0.60 30 0.60L30 0.60L30 0.60Q26.13 0.60 25.62-5.37L25.62-5.37L25.62-5.37Q25.53-6.21 25.53-7.05L25.53-7.05L25.53-7.05Q27.03-7.47 28.08-8.88L28.08-8.88L28.08-8.88Q29.13-10.29 29.13-11.94L29.13-11.94L29.13-11.94Q29.13-13.59 27.96-13.59L27.96-13.59L27.96-13.59Q27.12-13.59 26.46-12.66L26.46-12.66L26.46-12.66Q25.80-11.73 25.50-10.14L25.50-10.14L23.52 0L17.46 0.60L21.66-21L27.69-21.60L27-18.03L27-18.03Q26.55-15.51 25.95-14.22ZM45.87-3.39L45.87-3.39L45.87-3.39Q44.31-1.77 41.46-1.77L41.46-1.77L41.46-1.77Q37.89-1.77 37.14-4.38L37.14-4.38L37.14-4.38Q36.90-5.16 36.90-6.03L36.90-6.03L36.90-6.03Q36.90-6.90 37.08-7.80L37.08-7.80L38.49-15.30L44.58-15.90L42.93-7.17L42.93-7.17Q42.87-6.78 42.78-6.36L42.78-6.36L42.78-6.36Q42.69-5.94 42.69-5.50L42.69-5.50L42.69-5.50Q42.69-5.07 42.84-4.79L42.84-4.79L42.84-4.79Q42.99-4.50 43.20-4.32L43.20-4.32L43.20-4.32Q43.56-4.08 44.20-4.08L44.20-4.08L44.20-4.08Q44.85-4.08 45.41-4.86L45.41-4.86L45.41-4.86Q45.96-5.64 46.23-6.99L46.23-6.99L47.88-15.30L53.79-15.90L51.54-4.11L51.54-4.11Q50.43 1.65 48.15 3.93L48.15 3.93L48.15 3.93Q46.98 5.10 45.47 5.56L45.47 5.56L45.47 5.56Q43.95 6.03 42 6.03L42 6.03L42 6.03Q38.85 6.03 37.05 5.04L37.05 5.04L37.05 5.04Q35.25 4.05 35.25 2.40L35.25 2.40L35.25 2.40Q35.25 1.17 36.18 0.46L36.18 0.46L36.18 0.46Q37.11-0.24 38.55-0.24L38.55-0.24L38.55-0.24Q39.81-0.24 40.77 0.30L40.77 0.30L40.77 0.30Q41.34 0.63 41.61 1.05L41.61 1.05L41.61 1.05Q40.92 1.65 40.92 2.64L40.92 2.64L40.92 2.64Q40.92 3.96 42.12 3.96L42.12 3.96L42.12 3.96Q44.10 3.96 45.24-0.60L45.24-0.60L45.24-0.60Q45.57-1.95 45.87-3.39ZM54.57-0.15L54.57-0.15L58.35-19.80L58.35-19.80Q61.89-20.10 64.17-20.10L64.17-20.10L64.17-20.10Q66.45-20.10 67.92-19.90L67.92-19.90L67.92-19.90Q69.39-19.71 70.38-19.20L70.38-19.20L70.38-19.20Q72.36-18.24 72.36-15.60L72.36-15.60L72.36-15.60Q72.36-14.07 71.04-12.78L71.04-12.78L71.04-12.78Q69.81-11.61 68.46-11.34L68.46-11.34L68.46-11.34Q69.90-11.10 70.92-10.02L70.92-10.02L70.92-10.02Q72-8.88 72-7.11L72-7.11L72-7.11Q72-3.69 69.45-1.69L69.45-1.69L69.45-1.69Q66.90 0.30 61.89 0.30L61.89 0.30L61.89 0.30Q58.44 0.30 54.57-0.15ZM62.73-9.66L61.23-1.89L61.23-1.89Q61.50-1.86 61.56-1.86L61.56-1.86L61.83-1.86L61.83-1.86Q64.29-1.86 65.34-3.48L65.34-3.48L65.34-3.48Q66.12-4.74 66.12-7.05L66.12-7.05L66.12-7.05Q66.12-8.28 65.33-8.94L65.33-8.94L65.33-8.94Q64.53-9.60 62.73-9.66L62.73-9.66ZM67.29-15.57L67.29-15.57L67.29-15.57Q67.29-18.06 64.89-18.06L64.89-18.06L64.62-18.06L64.62-18.06Q64.50-18.06 64.32-18.03L64.32-18.03L63.12-11.70L63.42-11.70L63.42-11.70Q67.29-11.79 67.29-15.57ZM81.15-1.65L81.15-1.65L81.15-1.65Q80.22 0.60 77.25 0.60L77.25 0.60L77.25 0.60Q75.75 0.60 74.79-0.45L74.79-0.45L74.79-0.45Q74.01-1.32 74.01-2.31L74.01-2.31L74.01-2.31Q74.01-4.56 75.06-9.48L75.06-9.48L77.25-21L83.34-21.60L80.43-6.42L80.43-6.42Q79.92-4.20 79.92-3.42L79.92-3.42L79.92-3.42Q79.92-1.71 81.15-1.65ZM90.24 0.60L90.24 0.60L90.24 0.60Q83.64 0.60 83.64-5.61L83.64-5.61L83.64-5.61Q83.64-10.02 86.07-12.87L86.07-12.87L86.07-12.87Q88.65-15.90 93.12-15.90L93.12-15.90L93.12-15.90Q96.36-15.90 98.01-14.40L98.01-14.40L98.01-14.40Q99.66-12.90 99.66-9.75L99.66-9.75L99.66-9.75Q99.66-4.95 97.08-2.16L97.08-2.16L97.08-2.16Q94.56 0.60 90.24 0.60ZM91.02-12.45L91.02-12.45L91.02-12.45Q90.66-11.64 90.38-10.42L90.38-10.42L90.38-10.42Q90.09-9.21 89.73-7.29L89.73-7.29L89.73-7.29Q89.37-5.37 89.37-3L89.37-3L89.37-3Q89.37-2.22 89.63-1.71L89.63-1.71L89.63-1.71Q89.88-1.20 90.57-1.20L90.57-1.20L90.57-1.20Q91.26-1.20 91.69-1.53L91.69-1.53L91.69-1.53Q92.13-1.86 92.46-2.64L92.46-2.64L92.46-2.64Q93.06-4.02 93.54-6.58L93.54-6.58L93.54-6.58Q94.02-9.15 94.06-10.26L94.06-10.26L94.06-10.26Q94.11-11.37 94.11-12.20L94.11-12.20L94.11-12.20Q94.11-13.02 93.87-13.56L93.87-13.56L93.87-13.56Q93.63-14.10 92.95-14.10L92.95-14.10L92.95-14.10Q92.28-14.10 91.83-13.68L91.83-13.68L91.83-13.68Q91.38-13.26 91.02-12.45ZM103.56-12.54L103.56-12.54L103.56-12.54Q104.58-13.98 106.13-14.94L106.13-14.94L106.13-14.94Q107.67-15.90 109.56-15.90L109.56-15.90L109.56-15.90Q111.45-15.90 112.35-15.30L112.35-15.30L118.23-15.90L116.19-4.38L116.19-4.38Q115.14 1.50 112.92 3.81L112.92 3.81L112.92 3.81Q110.79 6 106.65 6L106.65 6L106.65 6Q103.50 6 101.70 5.01L101.70 5.01L101.70 5.01Q99.90 4.02 99.90 2.37L99.90 2.37L99.90 2.37Q99.90 1.14 100.83 0.43L100.83 0.43L100.83 0.43Q101.76-0.27 103.20-0.27L103.20-0.27L103.20-0.27Q104.46-0.27 105.42 0.30L105.42 0.30L105.42 0.30Q105.99 0.60 106.26 1.02L106.26 1.02L106.26 1.02Q105.57 1.62 105.57 2.61L105.57 2.61L105.57 2.61Q105.57 3.90 106.77 3.90L106.77 3.90L106.77 3.90Q108.78 3.90 109.92-0.84L109.92-0.84L109.92-0.84Q110.25-2.13 110.52-3.42L110.52-3.42L110.52-3.42Q109.17-1.77 106.11-1.77L106.11-1.77L106.11-1.77Q103.98-1.77 102.75-2.79L102.75-2.79L102.75-2.79Q101.52-3.81 101.52-6.21L101.52-6.21L101.52-6.21Q101.52-7.71 102.03-9.40L102.03-9.40L102.03-9.40Q102.54-11.10 103.56-12.54ZM107.46-6.12L107.46-6.12L107.46-6.12Q107.46-4.08 108.51-4.08L108.51-4.08L108.51-4.08Q109.23-4.08 109.92-4.86L109.92-4.86L109.92-4.86Q110.46-5.49 110.67-6.42L110.67-6.42L112.20-14.13L112.20-14.13Q112.05-14.16 111.90-14.22L111.90-14.22L111.90-14.22Q111.60-14.34 111.21-14.34L111.21-14.34L111.21-14.34Q109.38-14.34 108.30-11.34L108.30-11.34L108.30-11.34Q107.46-9 107.46-6.12Z" fill="url(#editing-outline-gradient)"></path></g></g><style>text {
  font-size: 64px;
  font-family: Arial Black;
  dominant-baseline: central;
  text-anchor: middle;
}</style></svg>